<svg width="80" height="80" viewBox="0 0 50 50" fill="none" xmlns="http://www.w3.org/2000/svg">
<g clip-path="url(#clip0_12_45)">
<path d="M39.952 39.1653L36.9404 37.1032C36.541 36.8298 36.0494 36.7262 35.5736 36.8152C35.0979 36.9043 34.677 37.1787 34.4035 37.578C34.1301 37.9774 34.0265 38.469 34.1155 38.9448C34.2046 39.4205 34.479 39.8414 34.8783 40.1149L36.2486 41.0531C34.6703 42.6851 32.6237 43.786 30.3921 44.2037C28.1606 44.6214 25.8544 44.335 23.7927 43.3844L32.9791 29.9675L34.485 30.9985C34.8843 31.2719 35.376 31.3755 35.8517 31.2865C36.3275 31.1975 36.7484 30.9231 37.0218 30.5237C37.2953 30.1243 37.3989 29.6327 37.3098 29.1569C37.2208 28.6812 36.9464 28.2603 36.547 27.9868L35.0412 26.9558L36.2578 25.1789C37.5057 25.5116 38.8311 25.3925 39.9996 24.8425C41.1682 24.2925 42.1047 23.3471 42.6436 22.1734C43.1826 20.9997 43.2892 19.6733 42.9448 18.4286C42.6003 17.1838 41.8269 16.101 40.7612 15.3713C39.6956 14.6417 38.4063 14.3122 37.1213 14.4412C35.8362 14.5703 34.6381 15.1494 33.7388 16.0763C32.8394 17.0033 32.2967 18.2183 32.2066 19.5066C32.1164 20.795 32.4847 22.0737 33.2461 23.1169L32.0295 24.8938L30.5237 23.8627C30.1243 23.5893 29.6327 23.4857 29.1569 23.5747C28.6812 23.6638 28.2603 23.9382 27.9868 24.3375C27.7134 24.7369 27.6098 25.2285 27.6988 25.7043C27.7879 26.18 28.0623 26.6009 28.4616 26.8744L29.9675 27.9054L20.781 41.3223C19.1491 39.744 18.0481 37.6974 17.6304 35.4659C17.2128 33.2343 17.4991 30.9281 18.4497 28.8664L19.8201 29.8046C20.2194 30.0781 20.7111 30.1816 21.1868 30.0926C21.6626 30.0036 22.0835 29.7292 22.3569 29.3298C22.6304 28.9304 22.7339 28.4388 22.6449 27.963C22.5559 27.4873 22.2815 27.0664 21.8821 26.793L18.8705 24.7309C18.4711 24.4574 17.9794 24.3539 17.5037 24.4429C17.0279 24.5319 16.607 24.8063 16.3336 25.2057C14.146 28.4007 13.3173 32.3338 14.0296 36.1398C14.7419 39.9458 16.937 43.313 20.132 45.5005C23.3269 47.6881 27.2601 48.5169 31.0661 47.8045C34.8721 47.0922 38.2393 44.8971 40.4268 41.7022C40.7003 41.3028 40.8039 40.8111 40.7148 40.3354C40.6258 39.8596 40.3514 39.4387 39.952 39.1653ZM36.6284 21.4073C36.3306 21.2034 36.1 20.9157 35.9656 20.5807C35.8313 20.2457 35.7993 19.8784 35.8737 19.5252C35.9481 19.172 36.1256 18.8488 36.3837 18.5965C36.6418 18.3442 36.969 18.1741 37.3237 18.1077C37.6785 18.0412 38.045 18.0815 38.3769 18.2234C38.7088 18.3653 38.9912 18.6025 39.1883 18.9048C39.3854 19.2072 39.4884 19.5612 39.4843 19.9222C39.4802 20.2831 39.3692 20.6347 39.1653 20.9325C38.8919 21.3319 38.471 21.6063 37.9952 21.6953C37.5195 21.7843 37.0278 21.6808 36.6284 21.4073Z" fill="white"/>
</g>
<defs>
<clipPath id="clip0_12_45">
<rect width="60" height="60" fill="white" transform="translate(24.7447) rotate(34.3991)"/>
</clipPath>
</defs>
</svg>
