<svg width="57" height="57" viewBox="0 0 57 57" fill="none" xmlns="http://www.w3.org/2000/svg">
<path d="M48.9488 45.5763C50.4372 43.5811 51.4586 41.2772 51.9376 38.8346C52.4167 36.392 52.3411 33.873 51.7165 31.4635C51.0919 29.054 49.9342 26.8155 48.3288 24.9131C46.7235 23.0108 44.7115 21.4933 42.4413 20.4725C41.9468 17.6275 40.8103 14.9326 39.1182 12.5927C37.4261 10.2527 35.223 8.32919 32.6761 6.96832C30.1292 5.60745 27.3056 4.84501 24.4199 4.73893C21.5342 4.63285 18.6623 5.18592 16.0223 6.35612C13.3824 7.52632 11.0439 9.28286 9.18461 11.4923C7.32529 13.7017 5.99403 16.3058 5.29199 19.1069C4.58994 21.9079 4.53559 24.8321 5.13306 27.6573C5.73052 30.4824 6.96409 33.1343 8.74002 35.4113L5.43877 38.6888C5.10922 39.0227 4.88598 39.4468 4.79722 39.9076C4.70846 40.3683 4.75815 40.845 4.94002 41.2775C5.1182 41.7112 5.42077 42.0825 5.8096 42.3445C6.19844 42.6066 6.65614 42.7477 7.12502 42.75H20.6388C21.9846 45.5872 24.1064 47.9852 26.7585 49.6665C29.4107 51.3477 32.4849 52.2435 35.625 52.25H49.875C50.3439 52.2477 50.8016 52.1066 51.1904 51.8445C51.5793 51.5825 51.8819 51.2112 52.06 50.7775C52.2419 50.345 52.2916 49.8683 52.2028 49.4076C52.1141 48.9468 51.8908 48.5227 51.5613 48.1888L48.9488 45.5763ZM19 35.625C19.0033 36.4203 19.0668 37.2143 19.19 38H12.8488L13.68 37.1925C13.9026 36.9717 14.0793 36.709 14.1999 36.4196C14.3205 36.1302 14.3825 35.8198 14.3825 35.5063C14.3825 35.1927 14.3205 34.8823 14.1999 34.5929C14.0793 34.3035 13.9026 34.0408 13.68 33.82C12.349 32.5036 11.2937 30.935 10.576 29.2059C9.85831 27.4769 9.49251 25.6221 9.50002 23.75C9.50002 19.9707 11.0014 16.3461 13.6738 13.6737C16.3461 11.0013 19.9707 9.5 23.75 9.5C26.699 9.48228 29.5794 10.3892 31.9864 12.0932C34.3933 13.7972 36.2057 16.2126 37.1688 19C36.6463 19 36.1475 19 35.625 19C31.2158 19 26.9872 20.7516 23.8694 23.8694C20.7516 26.9871 19 31.2158 19 35.625ZM44.0325 47.5L44.1513 47.6187H35.625C32.878 47.6138 30.2176 46.6567 28.097 44.9103C25.9765 43.1639 24.5271 40.7364 23.9956 38.0412C23.4641 35.346 23.8835 32.5499 25.1823 30.1293C26.4811 27.7087 28.579 25.8132 31.1186 24.7658C33.6582 23.7184 36.4823 23.5839 39.1099 24.3851C41.7376 25.1864 44.0061 26.8739 45.5291 29.1601C47.0521 31.4464 47.7354 34.1899 47.4625 36.9234C47.1896 39.6569 45.9775 42.2112 44.0325 44.1513C43.585 44.5897 43.3289 45.1873 43.32 45.8138C43.3213 46.128 43.385 46.4388 43.5073 46.7283C43.6296 47.0177 43.8081 47.28 44.0325 47.5Z" fill="white"/>
</svg>
