<svg width="50" height="50" viewBox="0 0 40 40" fill="none" xmlns="http://www.w3.org/2000/svg">
<path d="M30 3.33333H10C8.67392 3.33333 7.40215 3.86011 6.46447 4.79779C5.52678 5.73548 5 7.00725 5 8.33333V26.6667C5 27.9927 5.52678 29.2645 6.46447 30.2022C7.40215 31.1399 8.67392 31.6667 10 31.6667H14.3167L18.8167 36.1833C18.9724 36.3378 19.1571 36.46 19.3602 36.5429C19.5632 36.6259 19.7807 36.6679 20 36.6667C20.3972 36.6667 20.7814 36.5248 21.0833 36.2667L26.45 31.6667H30C31.3261 31.6667 32.5979 31.1399 33.5355 30.2022C34.4732 29.2645 35 27.9927 35 26.6667V8.33333C35 7.00725 34.4732 5.73548 33.5355 4.79779C32.5979 3.86011 31.3261 3.33333 30 3.33333ZM31.6667 26.6667C31.6667 27.1087 31.4911 27.5326 31.1785 27.8452C30.866 28.1577 30.442 28.3333 30 28.3333H25.8333C25.4361 28.3333 25.0519 28.4752 24.75 28.7333L20.0833 32.7333L16.1833 28.8167C16.0276 28.6622 15.8429 28.54 15.6398 28.457C15.4368 28.3741 15.2193 28.3321 15 28.3333H10C9.55797 28.3333 9.13405 28.1577 8.82149 27.8452C8.50893 27.5326 8.33333 27.1087 8.33333 26.6667V8.33333C8.33333 7.8913 8.50893 7.46738 8.82149 7.15482C9.13405 6.84226 9.55797 6.66666 10 6.66666H30C30.442 6.66666 30.866 6.84226 31.1785 7.15482C31.4911 7.46738 31.6667 7.8913 31.6667 8.33333V26.6667Z"  fill="white"/>
</svg>
