<svg xmlns="http://www.w3.org/2000/svg" viewBox="0 0 500 500"><!--Destination--><g id="freepik--background-simple--inject-1--inject-163"><path d="M317.54,102.41q-7.52-3.22-15.22-5.93C266.57,84,223.83,91.1,192.5,111.76c-16.57,10.93-28.11,25.56-36.71,43.33-8.74,18.07-14.82,37.56-27.33,53.56C116.22,224.32,99.07,236.71,92.17,256c-15,42.14,10.66,99.68,58.72,103.67,33.91,2.82,46.47,22.06,82,31.77S303.46,400,344.05,371c16.39-11.7,30.75-27.12,37-46.61,5.63-17.54.43-35.86,1.22-53.77,1-22.1,16.43-38.66,24.69-58.18,12.26-28.95-4.87-54.41-27.29-72.39A271.74,271.74,0,0,0,317.54,102.41Z" style="fill:#92E3A9"></path><path d="M317.54,102.41q-7.52-3.22-15.22-5.93C266.57,84,223.83,91.1,192.5,111.76c-16.57,10.93-28.11,25.56-36.71,43.33-8.74,18.07-14.82,37.56-27.33,53.56C116.22,224.32,99.07,236.71,92.17,256c-15,42.14,10.66,99.68,58.72,103.67,33.91,2.82,46.47,22.06,82,31.77S303.46,400,344.05,371c16.39-11.7,30.75-27.12,37-46.61,5.63-17.54.43-35.86,1.22-53.77,1-22.1,16.43-38.66,24.69-58.18,12.26-28.95-4.87-54.41-27.29-72.39A271.74,271.74,0,0,0,317.54,102.41Z" style="fill:#fff;opacity:0.7000000000000001"></path></g><g id="freepik--Shadow--inject-1--inject-163"><ellipse cx="255.27" cy="397.03" rx="59.67" ry="12.35" style="fill:#263238"></ellipse></g><g id="freepik--Globe--inject-1--inject-163"><circle cx="255.27" cy="238.29" r="132.07" transform="translate(-93.73 250.29) rotate(-45)" style="fill:#fff;stroke:#263238;stroke-miterlimit:10"></circle><path d="M255.27,356.35A132.08,132.08,0,0,1,123.38,231.28c-.12,2.32-.19,4.66-.19,7a132.08,132.08,0,0,0,264.15,0q0-3.53-.18-7A132.08,132.08,0,0,1,255.27,356.35Z" style="fill:#263238;stroke:#263238;stroke-miterlimit:10"></path><polygon points="248.01 179.03 251.77 184.04 260.24 187.18 262.12 193.76 256.79 195.95 256.79 197.21 266.19 200.97 270.58 200.03 272.77 196.58 272.15 190.62 266.5 188.43 263.06 182.79 250.52 177.14 248.01 179.03" style="fill:#92E3A9;stroke:#263238;stroke-miterlimit:10"></polygon><path d="M329.51,322l-10-4.07-12.23-4.39h-9.71l-9.09-1.88-10,2.19-5.65.32h-3.44l-6.59,3.76-6.27,2.5L248,315.07l2.19-8.78-5.32-2.2h-6.27l-.94-2.82.62-5.64-2.19-3.13-4.39.62-1.25,3.14-5.33.31-4.7-5.64-1.88-7.52,4.7-8.78,9.09.63,2.51,2.19h3.76l4.7-2.82,4.07,1.25L253,285.6l2.19-.31-.63-7.21-1.88-3.76.63-6,11.6-5,1.56-11.59,5-4.08,4.08-7.21,3.13-.62,7.21-4.71.31-2.5-5,.31-.94-2.51h-3.45l-5.33,1.26,2.51-4.08,11-3.13,2.51-2.83,4.38,6.9,2.83,2.82,4.38-1.25L297.22,226l-6.58-4.7-7.52-8.46-7.84-5.33-7.52-1.25L264,202.53l-5-1.25-.63,1.25-.62,9.09,1.25,3.14-2.82,10-6.27-5,.94-4.38-6.58-3.14-2.82-3.45L243,201l9.09-6.59.62-7.52-3.45.31-2.19-2.82-.94-4.7-2.19-.31-1.26,5-3.45.63-1.56-11-2.51-1.57-4.39-1.88-5,2.51,6.26,6,1.26,5.33L222,175.89l-7.83-8.46-.63-8.47-8.15-2.5-6.27,4.07a48.62,48.62,0,0,1-4.7,2.51c-1.57.63-7.52,1.25-7.52,1.25l-1.26,5.33-7.21.31.63,3.45,11.6,1.88,5.95,6.59v11l-3.44,9.71.62,10.35L185,228.24l-1.88,22.88L186,264.29l4.07,10,4.7.62-1.56-5-2.51-3.76-1.57-6.9,2.82-.63,4.39,11.29,3.13,10v8.15l6,7.21L216,303.15l16.3,4.39,5,4.7,3.76,5,5.65,3.45,6.89,1.88,6.9-.32s-.31,3.14-.31,4.71-4.39,6.89-4.39,6.89l-3.45,6.27,2.51,6.9,6.89,2.82,9.72,10,4.39,1.88v4.7l.55,2.19a131.51,131.51,0,0,0,65.74-31l.16-2.27,8.47-15.36-4.08-2.82Z" style="fill:#92E3A9;stroke:#263238;stroke-miterlimit:10"></path><path d="M362.11,198.15l-3.45-6-4.39-6.9-1.25-9.4,5.64.94.31-3.13-4.07-.32,3.45-1.56,3.76-2.2v-3.13l-3.76-5-.81-6.74a132.13,132.13,0,0,0-155-37.56l7.23,5.12-4.39,5.64-6,1.25-.62,8.47-2.51.94L193.16,142l.31,5.64,5.33.63-2.2,5.32h5.33L211,142l.94-5,8.78-.63,2.19-3.76,9.09-.94.94-5.33,6.59-.31s4.7-2.51,5.64-2.51a38.22,38.22,0,0,1,5.33,1.57l4.7,3.76h6.58l5.65-3.45,7.2.63a7.81,7.81,0,0,0,3.45,1.25c1.57,0,6.27-2.19,6.27-2.19l9.09,5.64,3.76,2.82v4.71l4.71.62,1.56-2.82,4.08,1.88-.32,2.51-9.4,2.51,5.33,6.89,11.28,6.27,4.71,6.27,6.89.63,1.57-3.14,2.51-.62L322,153l-5-.63,4.08-1.25-3.77-5.33,5.33-.32,6.9,3.77,1.57,7.52,3.45,4.07,2.82,9.09,6.89,5v10.34l7.21,4.71-.31,3.44-.94,4.08,1.88,5.64.63,2.82,5.32.94,2.51-5.33Z" style="fill:#92E3A9;stroke:#263238;stroke-miterlimit:10"></path><path d="M366.18,166.57v1.8l-1.56,5,.94,4.39L369,179v6l-3.77-1.57-.94,16.93-3.76,6.9,2.51,8.77,4.07,3.76V236.7l4.08,13.17,4.39,10,7.21,1.88,2.51-6.27,1-.8a134.8,134.8,0,0,0,1-16.42A131.38,131.38,0,0,0,366.18,166.57Z" style="fill:#92E3A9;stroke:#263238;stroke-miterlimit:10"></path><polygon points="293.78 164.61 273.09 155.51 264 155.83 261.8 161.78 258.04 157.71 251.15 159.28 250.52 169.62 256.16 173.7 260.24 167.74 264.94 172.44 274.65 180.91 276.54 190 284.69 200.34 297.85 198.15 297.54 193.44 294.72 188.12 294.09 175.58 297.22 170.25 293.78 164.61" style="fill:#92E3A9;stroke:#263238;stroke-miterlimit:10"></polygon><polygon points="310.7 171.5 306 170.25 301.93 173.7 304.12 182.79 308.19 182.79 310.7 171.5" style="fill:#92E3A9;stroke:#263238;stroke-miterlimit:10"></polygon><polygon points="339.85 177.46 329.2 171.81 327 168.05 324.49 168.99 326.69 175.26 328.57 183.41 333.27 185.29 334.21 184.04 331.39 179.34 339.54 182.47 339.85 177.46" style="fill:#92E3A9;stroke:#263238;stroke-miterlimit:10"></polygon><polygon points="248.32 290.62 247.07 291.87 256.47 294.69 260.24 299.08 266.19 299.71 268.39 296.26 261.18 295 248.32 290.62" style="fill:#92E3A9;stroke:#263238;stroke-miterlimit:10"></polygon><polygon points="276.22 296.57 269.64 298.45 270.58 300.96 278.73 300.96 280.3 298.45 277.48 298.77 276.22 296.57" style="fill:#92E3A9;stroke:#263238;stroke-miterlimit:10"></polygon></g><g id="freepik--airplane-1--inject-1--inject-163"><path d="M211.12,291c-46.14,0-83.55-40.82-83.55-91.17s37.41-91.18,83.55-91.18A76.51,76.51,0,0,1,224,109.73" style="fill:none;stroke:#263238;stroke-miterlimit:10;stroke-dasharray:2"></path><path d="M218.66,296a1.91,1.91,0,0,0,2.13-1.57h0a2.32,2.32,0,0,0-1.79-2.65l-9.9-2.11-.22,0-3.23-6.35,1.58.17a1,1,0,0,0,1.06-.71.94.94,0,0,0-.78-1.15l-2.93-.41-2.42-4.78,2.19.24a.93.93,0,0,0,1-.77h0a.56.56,0,0,0-.24-1l-4.06-.57-1.62-3.17a4.43,4.43,0,0,0-3-2.31l-1-.23,2.83,10.56s1.91,6.77-.92,9L186,286.78h-.15l-3.44-6.71-2.62-.76.92,7.34-1.28,0a.11.11,0,0,0,0,.21l1.3.59-3.58,6.69,3,.38,5-5.12.24.11,10.23,2.32c1.26.7,3,2.15,1.89,4.45-1.68,3.4-9.42,13.61-9.42,13.61l1.79,0a4.67,4.67,0,0,0,3.17-1.18l2.48-2.24,3.37.37a1,1,0,0,0,1.06-.71.94.94,0,0,0-.78-1.15l-1.71-.24,3.65-3.29,3.37.37a1,1,0,0,0,1.06-.71.94.94,0,0,0-.78-1.15l-1.71-.24,5.55-5Z" style="fill:#263238"></path></g><g id="freepik--airplane-2--inject-1--inject-163"><path d="M130.4,281.25a59.86,59.86,0,0,1-25.06-27c-14.16-30.44-.56-66.78,30.39-81.19s67.51-1.41,81.68,29q1,2.16,1.82,4.35" style="fill:none;stroke:#263238;stroke-miterlimit:10;stroke-dasharray:2"></path><path d="M226.49,240.11a1.93,1.93,0,0,0,2.36,1.22h0a2.32,2.32,0,0,0,1.58-2.79l-2.53-9.81-.07-.2,4.25-5.72.54,1.49a1,1,0,0,0,1.11.63.93.93,0,0,0,.68-1.21l-.93-2.8,3.19-4.3.77,2.07a.94.94,0,0,0,1.15.58h0a.56.56,0,0,0,.8-.67l-1.3-3.9,2.12-2.85a4.41,4.41,0,0,0,.74-3.7l-.25-1-8.19,7.24s-5.21,4.73-8.5,3.2l-3.77-10.8-.06-.14,4.47-6.06-.49-2.68L218,202l-.54-1.15a.12.12,0,0,0-.22.05l.06,1.42-7.58-.22,1,2.83,6.8,2.18v.27l2.48,10.2c-.06,1.43-.57,3.67-3.14,3.67-3.79,0-16.38-2.38-16.38-2.38l.77,1.62a4.6,4.6,0,0,0,2.47,2.3l3.11,1.24,1.17,3.18a1,1,0,0,0,1.11.63.94.94,0,0,0,.68-1.21l-.55-1.64,4.57,1.81L215,230a1,1,0,0,0,1.11.63.93.93,0,0,0,.68-1.21l-.54-1.64,6.93,2.75Z" style="fill:#263238"></path></g><g id="freepik--airplane-3--inject-1--inject-163"><path d="M273,258a86.26,86.26,0,0,1,9.82,19.17c6.71,18.37,6.78,37,1.46,51.63" style="fill:none;stroke:#263238;stroke-miterlimit:10;stroke-dasharray:2"></path><path d="M267,242.55a1.92,1.92,0,0,0-2.56-.7h0a2.33,2.33,0,0,0-1,3.05l4.49,9.08.11.18-3,6.47-.85-1.34a1,1,0,0,0-1.21-.39.93.93,0,0,0-.42,1.32l1.49,2.55-2.25,4.87-1.17-1.88a.94.94,0,0,0-1.24-.33h0a.56.56,0,0,0-.65.82l2.07,3.55L259.32,273a4.39,4.39,0,0,0,0,3.78l.45.95,6.54-8.77s4.13-5.69,7.66-4.87l5.91,9.8.09.12-3.14,6.86,1,2.52,5.19-5.26.77,1a.11.11,0,0,0,.2-.1l-.35-1.38,7.47-1.33-1.54-2.57-7.11-.74-.07-.27-4.51-9.47c-.23-1.42-.19-3.71,2.33-4.24,3.71-.77,16.52-1,16.52-1l-1.09-1.43a4.67,4.67,0,0,0-2.89-1.75l-3.29-.57-1.8-2.87a1,1,0,0,0-1.22-.39.93.93,0,0,0-.41,1.32l.87,1.5-4.84-.84-1.8-2.88a1,1,0,0,0-1.22-.39,1,1,0,0,0-.42,1.33l.87,1.5-7.35-1.28Z" style="fill:#263238"></path></g><g id="freepik--airplane-4--inject-1--inject-163"><path d="M393.28,291.35c.21-.26.41-.52.61-.79" style="fill:none;stroke:#263238;stroke-miterlimit:10"></path><path d="M395.1,289c19.59-26.63,23.23-62.15,6.34-91-11.68-19.95-30.95-32.9-52.57-37.66" style="fill:none;stroke:#263238;stroke-miterlimit:10;stroke-dasharray:2.0018439292907715,2.0018439292907715"></path><path d="M347.89,160.08l-1-.2" style="fill:none;stroke:#263238;stroke-miterlimit:10"></path><path d="M387.37,296.11a1.91,1.91,0,0,0,.7,2.55h0a2.32,2.32,0,0,0,3.12-.72l5.51-8.5.1-.19,7.08-.74-.72,1.41a1,1,0,0,0,.28,1.24,1,1,0,0,0,1.36-.32l1.43-2.58,5.32-.56-1,2a.94.94,0,0,0,.36,1.23h0a.56.56,0,0,0,1,.14l2-3.59,3.53-.37a4.43,4.43,0,0,0,3.23-2l.59-.88-10.88-1.12s-7-.64-8.11-4.1l5.4-10.08.06-.14,7.49-.81,1.64-2.18L409.69,264l.49-1.18a.11.11,0,0,0-.18-.12l-1,1L404,258l-1.42,2.64,3,6.48-.19.19-5.83,8.73c-1.1.92-3.09,2.06-4.83.17-2.57-2.79-9.34-13.67-9.34-13.67l-.67,1.66a4.64,4.64,0,0,0,0,3.38l1.19,3.12-1.55,3a1,1,0,0,0,.29,1.24.93.93,0,0,0,1.35-.32l.84-1.51,1.76,4.59-1.55,3a1,1,0,0,0,.29,1.24.94.94,0,0,0,1.35-.32l.84-1.51,2.67,7Z" style="fill:#263238"></path></g><g id="freepik--airplane-5--inject-1--inject-163"><path d="M213.24,111.42a79.38,79.38,0,0,1,41-11.65c54.88,0,99.37,58.7,99.37,131.12,0,41.54-14.64,78.56-37.47,102.59" style="fill:none;stroke:#263238;stroke-miterlimit:10;stroke-dasharray:2"></path><path d="M294,358.85a1.92,1.92,0,0,0,.34,2.63h0a2.32,2.32,0,0,0,3.19-.29l6.63-7.67.12-.17,7.12.24-.91,1.29a1,1,0,0,0,.11,1.28A.94.94,0,0,0,312,356l1.78-2.36,5.35.18-1.27,1.81a.93.93,0,0,0,.18,1.27h0a.56.56,0,0,0,1,.28l2.46-3.28L325,354a4.45,4.45,0,0,0,3.47-1.49l.69-.79-10.62-2.61s-6.85-1.6-7.47-5.17l6.74-9.25.07-.13,7.54.23,1.92-1.93-6.87-2.74.65-1.11a.11.11,0,0,0-.17-.14l-1.13.86-4.14-6.37-1.77,2.42,2.08,6.84-.21.16-7,7.84c-1.22.77-3.35,1.62-4.81-.49-2.16-3.12-7.37-14.82-7.37-14.82l-.89,1.55a4.61,4.61,0,0,0-.49,3.35l.75,3.25-1.95,2.78a1,1,0,0,0,.12,1.27.93.93,0,0,0,1.38-.13l1-1.38,1.11,4.78-1.95,2.78a1,1,0,0,0,.12,1.27.94.94,0,0,0,1.38-.13l1-1.39,1.69,7.28Z" style="fill:#263238"></path></g><g id="freepik--Locations--inject-1--inject-163"><path d="M231.53,88.08A7.55,7.55,0,0,0,224,95.63c0,4.17,7.55,13.55,7.55,13.55s7.55-9.38,7.55-13.55A7.55,7.55,0,0,0,231.53,88.08Zm-.1,10.55a3.1,3.1,0,1,1,3.1-3.1A3.1,3.1,0,0,1,231.43,98.63Z" style="fill:#263238"></path><path d="M336.77,123.33a7.55,7.55,0,0,0-7.55,7.55c0,4.17,7.55,13.55,7.55,13.55s7.55-9.38,7.55-13.55A7.55,7.55,0,0,0,336.77,123.33Zm-.1,10.55a3.1,3.1,0,1,1,3.1-3.1A3.1,3.1,0,0,1,336.67,133.88Z" style="fill:#263238"></path><path d="M283.77,338.47a7.55,7.55,0,0,0-7.55,7.55c0,4.17,7.55,13.55,7.55,13.55s7.55-9.38,7.55-13.55A7.55,7.55,0,0,0,283.77,338.47ZM283.66,349a3.1,3.1,0,1,1,3.11-3.1A3.1,3.1,0,0,1,283.66,349Z" style="fill:#263238"></path><path d="M230.07,246.64a7.55,7.55,0,0,0-7.55,7.55c0,4.17,7.55,13.54,7.55,13.54s7.55-9.37,7.55-13.54A7.55,7.55,0,0,0,230.07,246.64ZM230,257.19a3.11,3.11,0,1,1,3.11-3.11A3.1,3.1,0,0,1,230,257.19Z" style="fill:#263238"></path></g></svg>