<svg width="44" height="44" viewBox="0 0 44 44" fill="none" xmlns="http://www.w3.org/2000/svg">
<path d="M22 0C9.85926 0 0 9.85926 0 22C0 34.1407 9.85926 44 22 44C34.1407 44 44 34.1407 44 22C44 9.85926 34.1407 0 22 0ZM22 1.62963C25.1207 1.62963 28.0622 2.3483 30.7055 3.59985C28.7972 3.98444 27.1757 4.82207 26.7879 4.7357C26.193 4.60533 23.3119 5.104 22.2542 5.5C21.1966 5.89763 21.296 6.40119 21.032 6.468C20.768 6.53319 20.6262 6.76948 20.2172 7.23067C19.8081 7.69348 20.4209 8.24918 20.4209 8.24918C20.4209 8.24918 21.9902 8.60281 22.2542 7.43437C22.4107 6.74178 22.189 8.02756 22.2542 8.55556C22.3194 9.08519 23.3053 9.21556 23.8333 8.55556C24.0713 8.25733 24.0387 7.52889 24.1902 7.28281C24.376 6.9797 24.7867 7.21111 25.005 7.18015C25.1354 7.16385 24.8356 7.38711 25.005 7.48652C25.3424 7.68533 26.0366 7.34474 25.8704 8.14815C25.8036 8.47244 24.7801 8.536 24.6481 9.01348C24.5145 9.49096 24.2913 9.77778 24.2913 9.77778L22.1027 9.8283L21.3889 8.80978C21.3889 8.80978 20.6947 9.11126 20.8788 9.72726C21.0076 10.151 20.6767 10.6431 20.6767 10.6431C20.6767 10.6431 19.5556 10.8224 19.5556 11.1532C19.5556 11.3341 19.0993 11.3569 18.8418 11.4579C18.6316 11.541 18.4898 11.8865 18.2828 11.9159C18.159 11.9321 17.3849 12.0462 17.2138 12.069C16.7477 12.1261 16.9579 12.232 16.9579 12.4259C16.9579 12.6899 17.8233 12.7323 17.8233 12.7323C17.8233 12.7323 18.3773 12.9458 18.1818 13.3418C17.983 13.7394 18.3219 13.9024 17.9259 13.9024C17.7532 13.9024 17.3556 13.8486 16.9579 13.8519C16.4446 13.8519 15.9524 13.6905 15.9394 13.9024C15.8905 14.7172 15.8889 15.8889 15.8889 15.8889C15.8889 15.8889 16.5847 16.2311 16.9579 16.1431C17.4761 16.0225 18.2356 16.4283 18.5876 15.4815C18.6153 15.4081 18.6332 15.2501 18.6902 15.1751C18.9347 14.8541 19.2003 14.2055 19.6061 14.005C19.8554 13.8796 20.2025 13.961 20.3199 13.9545C20.5839 13.9382 21.032 13.596 21.032 13.596C21.032 13.596 22.2021 13.7557 22.5084 14.9209C22.5997 15.2647 22.5133 15.8302 22.7121 15.9394C22.8344 16.0062 23.3754 15.431 23.3754 15.431L23.9865 15.4815L23.6296 14.6667L22.5084 13.3939L22.7121 13.2961C22.7121 13.2961 23.5628 13.3516 23.6296 13.5487C23.6948 13.7476 24.7182 14.2495 24.5471 14.8231C24.2603 15.7699 24.9545 15.9932 24.9545 15.9932C24.9545 15.9932 25.5559 16.135 25.8182 15.6379C26.048 15.2028 26.0741 14.8231 26.0741 14.8231L26.8384 14.6667C26.8384 14.6667 26.765 13.081 27.601 13.037C28.4387 12.9947 28.5185 13.037 28.5185 13.037C28.5185 13.037 30.3567 13.6449 30.5556 14.1061C30.7527 14.5689 30.844 15.0089 30.2492 15.0741C29.656 15.1409 28.7727 15.0252 28.7727 15.0252C28.7727 15.0252 26.4359 14.6716 26.6347 15.3316C26.8319 15.9932 27.0421 16.6564 27.0421 16.6564C27.0421 16.6564 27.5489 16.6027 28.0084 16.7037C28.5006 16.8161 29.1296 16.7542 29.1296 16.7542L29.2323 17.8754L28.9259 17.9764C28.5935 18.0693 27.6108 18.1329 27.3468 18.2307C27.0828 18.3284 24.2049 17.8265 24.1397 17.9259C24.0729 18.0237 23.1391 18.3627 22.6111 18.2323C22.0831 18.0987 21.9495 16.8569 21.9495 16.8569C21.9495 16.8569 21.8533 16.2637 21.4916 16.2963L18.6397 16.5505C18.6397 16.5505 17.8249 16.9139 17.8249 17.1111C17.8249 17.1111 17.5935 16.9449 17.2643 17.1111C16.9335 17.2773 16.4283 17.2545 16.2963 17.5185C16.1643 17.7825 15.6444 18.2779 15.3788 18.7407C15.1164 19.2019 14.357 19.2394 14.1566 20.0656C13.9594 20.8902 13.8193 22.2705 13.8519 22.8653C13.8844 23.4601 13.8681 24.935 14.463 25.2593C15.0578 25.5852 15.8465 26.387 16.1431 26.6852C16.4397 26.9818 18.0335 27.223 18.2307 27.0926C18.4295 26.9606 19.1416 26.6852 19.505 26.6852C19.8684 26.6852 20.649 26.7422 20.8804 26.9394C21.1102 27.1382 21.3938 27.5652 21.5926 28.0606C21.7898 28.556 21.9886 29.392 22.1532 29.6902C22.3178 29.9868 22.9452 30.5539 22.7121 31.1161C22.4824 31.6784 22.0864 32.2373 22.1532 32.8973C22.2184 33.5573 22.6144 34.4341 22.7643 34.7307C22.9142 35.0273 23.8676 35.961 23.8333 36.2593C23.8007 36.5559 24.081 36.4825 24.4444 36.6161C24.8079 36.7465 26.3511 36.3212 26.5841 36.0556C26.8139 35.7916 27.1724 34.9572 27.6027 34.527C28.0313 34.0984 28.9227 33.3944 29.3839 32.8973C29.8467 32.4019 30.3193 31.9473 30.3519 31.3199C30.3844 30.6908 30.021 29.3105 30.3519 29.0791C30.6827 28.8477 31.1406 28.4892 31.473 28.0606C31.8022 27.6304 32.5046 27.6646 33 26.2778C33.4954 24.891 33.6584 24.4591 33.5606 24.3939C33.4628 24.3271 32.6741 24.6547 32.5421 24.8519C32.4101 25.0507 31.6376 25.0996 31.4714 25.2593C31.3084 25.419 30.5556 25.2593 30.5556 25.2593C30.5556 25.2593 30.8733 24.0077 30.7087 23.5791C30.5425 23.1505 29.6984 21.4736 29.4344 20.8788C29.2176 20.3916 29.1801 19.8277 29.2828 19.4545C29.3252 19.5148 29.3513 19.5474 29.3839 19.6061C29.5012 19.8179 30.1351 20.5676 30.4024 21.3384C30.9727 22.9892 31.6246 24.1902 31.6246 24.1902C31.6246 24.1902 32.485 24.2228 33.9175 23.1196C34.8904 22.3716 35.9317 22.3324 36.1061 21.9495C36.4369 21.2227 35.0876 20.5741 35.0876 20.5741H33.8653L32.9495 18.995L33.2037 18.8939C33.2037 18.8939 34.219 20.0656 34.6801 20.0656C35.143 20.0656 36.3717 19.9581 36.7693 20.4209C37.1653 20.8837 38.4039 21.6659 38.6027 22.4579C38.8015 23.2499 38.7004 24.3581 39.059 24.7508C39.5674 25.3016 40.0286 25.2593 40.0286 25.2593L40.6397 23.8333L42.0656 22.2037L42.3671 22.0505C42.3394 33.2868 33.2412 42.3704 22 42.3704C16.8812 42.3725 11.9509 40.4386 8.19867 36.9567L8.80978 36.0556L9.52355 33.2037L7.79126 32.1347L5.80637 31.4714L4.48148 28.2643C4.48148 28.2643 3.24622 27.2653 2.22118 26.8025C1.83397 25.2309 1.63538 23.6187 1.62963 22C1.62963 20.799 1.75511 19.6273 1.95556 18.4833C3.20711 17.5218 4.88889 16.7559 4.88889 16.7559C4.88889 16.7559 5.81778 16.6483 4.22726 14.005C4.02496 13.6727 3.87234 13.3125 3.77422 12.936C4.44237 11.5932 5.23926 10.327 6.17467 9.17156C6.09318 9.65556 5.77704 11.6649 6.36533 12.0185C7.02533 12.4145 7.65926 11.1923 7.79126 10.7963C7.92326 10.4003 9.3003 8.88963 9.8283 8.09763C10.2047 7.53215 10.0727 6.43541 9.68489 5.79333C13.2212 3.09043 17.5491 1.62717 22 1.62963ZM17.9764 5.2963C17.6603 5.32726 17.0084 5.49674 17.0084 6.01007V6.97644C17.0084 6.97644 16.8129 7.32519 16.7037 7.436C16.5929 7.54519 16.689 8.052 16.7542 8.25082C16.8194 8.44963 16.8569 9.06563 16.8569 9.06563C16.8569 9.06563 17.1763 9.23185 17.2643 9.31985C17.3523 9.40622 18.1052 9.59689 18.436 9.42089C18.7652 9.24652 18.9575 8.78207 19.1987 8.75926C19.4415 8.73644 19.2932 8.73807 19.2492 8.55556C19.2068 8.37956 19.4545 7.74074 19.4545 7.74074L18.7913 7.18015C18.7913 7.18015 18.3904 6.32459 18.4344 6.06059C18.4784 5.79496 18.1084 5.32726 18.1296 5.2963C18.1345 5.28 18.0807 5.28 17.9764 5.2963ZM16.2474 7.2323C16.1578 7.27141 15.985 7.48652 15.8905 7.53704C15.765 7.60059 15.8041 7.81896 15.7373 7.99496C15.6721 8.17096 15.4831 8.80978 15.4831 8.80978L15.8905 8.96296C15.8905 8.96296 16.5375 8.84074 16.6043 8.70874C16.6564 8.60281 16.4658 8.0243 16.399 7.79126C16.3827 7.73585 16.399 7.69022 16.399 7.69022L16.2979 7.28281C16.2816 7.25022 16.2767 7.21763 16.2474 7.23067V7.2323ZM33.308 12.8333C33.4563 12.8333 33.7496 12.9376 33.8164 12.9865C33.9044 13.0517 33.9044 13.8258 33.8164 14.3098C33.784 14.4716 33.8065 14.6395 33.8803 14.7871C33.9541 14.9347 34.075 15.0535 34.2239 15.1246C34.3575 15.1686 34.4504 16.2295 34.4276 16.4495C34.4064 16.6695 33.7839 16.8341 33.6127 16.8569C33.4416 16.8797 32.7246 16.8732 32.7474 16.5505C32.7702 16.2311 32.6236 15.1865 32.4916 14.7677C32.3612 14.3505 32.3954 13.7573 32.5942 13.6481C32.793 13.539 33.2053 12.8839 33.2053 12.8839C33.2216 12.848 33.2575 12.835 33.308 12.8333ZM32.3905 30.8619C32.3107 30.8619 32.195 30.8782 32.0841 30.9108C32.0841 30.9108 32.0385 31.8886 31.5757 32.1852C31.1145 32.4834 30.8114 33.0587 30.8114 33.3569C30.8114 33.6535 30.7136 33.924 30.8114 34.2222C30.9108 34.5188 31.1373 34.7649 31.4225 34.7323C31.7093 34.6997 32.019 34.0804 32.0858 33.8148C32.151 33.5508 32.397 32.9804 32.5942 32.7963C32.793 32.6121 32.8321 32.0939 32.7979 31.8283C32.7702 31.5985 32.9446 30.8489 32.3905 30.8619Z" fill="white"/>
</svg>
