<svg width="50" height="50" viewBox="0 0 50 50" fill="none" xmlns="http://www.w3.org/2000/svg">
<path d="M16.1562 12.2053V6.60938C16.1562 5.8303 16.4657 5.08314 17.0166 4.53225C17.5675 3.98136 18.3147 3.67188 19.0938 3.67188H40.3906C41.1697 3.67188 41.9169 3.98136 42.4678 4.53225C43.0186 5.08314 43.3281 5.8303 43.3281 6.60938V34.1191C43.3276 34.2662 43.283 34.4097 43.1999 34.5311C43.1169 34.6525 42.9993 34.7462 42.8624 34.8C42.7255 34.8538 42.5756 34.8653 42.4321 34.8329C42.2886 34.8005 42.1582 34.7258 42.0577 34.6184L35.7861 27.9062H31.2109" stroke="white" stroke-width="3" stroke-linecap="round" stroke-linejoin="round"/>
<path d="M20.8048 12.3595C20.8964 11.2175 21.3818 10.1428 22.1781 9.31919C22.6992 8.7976 23.3179 8.38382 23.999 8.10151C24.6801 7.8192 25.4101 7.67389 26.1474 7.67389C26.8847 7.67389 27.6147 7.8192 28.2958 8.10151C28.9769 8.38382 29.5956 8.7976 30.1167 9.31919C30.6378 8.7976 31.2565 8.38382 31.9376 8.10151C32.6187 7.8192 33.3487 7.67389 34.086 7.67389C34.8233 7.67389 35.5533 7.8192 36.2344 8.10151C36.9155 8.38382 37.5342 8.7976 38.0553 9.31919C40.2584 11.5223 39.6342 15.4512 37.9158 18.0289C36.3589 20.3715 32.7752 23.2356 31.042 24.5134" stroke="white" stroke-width="2" stroke-linecap="round" stroke-linejoin="round"/>
<path d="M27.9062 12.4844H6.60938C5.8303 12.4844 5.08314 12.7939 4.53225 13.3447C3.98136 13.8956 3.67188 14.6428 3.67188 15.4219V42.9316C3.67238 43.0787 3.71705 43.2222 3.80008 43.3436C3.88312 43.465 4.0007 43.5587 4.1376 43.6125C4.27449 43.6663 4.42439 43.6778 4.56788 43.6454C4.71136 43.613 4.84182 43.5383 4.94234 43.4309L11.2139 36.7188H27.9062C28.6853 36.7188 29.4325 36.4093 29.9834 35.8584C30.5343 35.3075 30.8438 34.5603 30.8438 33.7812V15.4219C30.8438 14.6428 30.5343 13.8956 29.9834 13.3447C29.4325 12.7939 28.6853 12.4844 27.9062 12.4844Z" stroke="white" stroke-width="3" stroke-linecap="round" stroke-linejoin="round"/>
<path d="M24.8292 18.1317C24.3081 17.6101 23.6894 17.1963 23.0083 16.914C22.3272 16.6317 21.5972 16.4864 20.8599 16.4864C20.1226 16.4864 19.3926 16.6317 18.7115 16.914C18.0304 17.1963 17.4117 17.6101 16.8906 18.1317C16.3695 17.6101 15.7508 17.1963 15.0697 16.914C14.3886 16.6317 13.6586 16.4864 12.9213 16.4864C12.184 16.4864 11.454 16.6317 10.7729 16.914C10.0918 17.1963 9.47308 17.6101 8.95202 18.1317C6.74889 20.3348 7.37311 24.2637 9.09155 26.8414C10.81 29.419 15.084 32.7164 16.4353 33.6931C16.5604 33.7833 16.7107 33.8319 16.8649 33.8319C17.0191 33.8319 17.1694 33.7833 17.2945 33.6931C18.6605 32.687 22.9272 29.4411 24.6383 26.8414C26.3494 24.2417 27.0176 20.3275 24.8292 18.1317V18.1317Z" stroke="white" stroke-width="2" stroke-linecap="round" stroke-linejoin="round"/>
</svg>
