<svg width="20" height="20" viewBox="0 0 20 20" fill="none" xmlns="http://www.w3.org/2000/svg">
<path d="M15 8.38V17H3V5H11.62C11.547 4.678 11.5 4.345 11.5 4C11.5 3.655 11.547 3.322 11.62 3H3C1.898 3 1 3.9 1 5V17C1 18.1 1.9 19 3 19H15C16.1 19 17 18.1 17 17V8.38C16.678 8.453 16.345 8.5 16 8.5C15.655 8.5 15.322 8.453 15 8.38ZM16 1C15.606 1 15.2159 1.0776 14.8519 1.22836C14.488 1.37913 14.1573 1.6001 13.8787 1.87868C13.6001 2.15726 13.3791 2.48797 13.2284 2.85195C13.0776 3.21593 13 3.60603 13 4C13 4.39397 13.0776 4.78407 13.2284 5.14805C13.3791 5.51203 13.6001 5.84274 13.8787 6.12132C14.1573 6.3999 14.488 6.62087 14.8519 6.77164C15.2159 6.9224 15.606 7 16 7C16.7956 7 17.5587 6.68393 18.1213 6.12132C18.6839 5.55871 19 4.79565 19 4C19 3.20435 18.6839 2.44129 18.1213 1.87868C17.5587 1.31607 16.7956 1 16 1Z" fill="white"/>
</svg>
