<svg width="47" height="47" viewBox="0 0 47 47" fill="none" xmlns="http://www.w3.org/2000/svg">
<path d="M16.7857 6.71429H30.2143V3.35714H16.7857V6.71429ZM47 23.5V36.0893C47 37.2433 46.5891 38.2312 45.7673 39.053C44.9455 39.8748 43.9576 40.2857 42.8036 40.2857H4.19643C3.04241 40.2857 2.0545 39.8748 1.2327 39.053C0.4109 38.2312 0 37.2433 0 36.0893V23.5H17.625V27.6964C17.625 28.151 17.7911 28.5445 18.1233 28.8767C18.4555 29.2089 18.849 29.375 19.3036 29.375H27.6964C28.151 29.375 28.5445 29.2089 28.8767 28.8767C29.2089 28.5445 29.375 28.151 29.375 27.6964V23.5H47ZM26.8571 23.5V26.8571H20.1429V23.5H26.8571ZM47 10.9107V20.9821H0V10.9107C0 9.7567 0.4109 8.76879 1.2327 7.94699C2.0545 7.12519 3.04241 6.71429 4.19643 6.71429H13.4286V2.51786C13.4286 1.81845 13.6734 1.22396 14.1629 0.734375C14.6525 0.244792 15.247 0 15.9464 0H31.0536C31.753 0 32.3475 0.244792 32.8371 0.734375C33.3266 1.22396 33.5714 1.81845 33.5714 2.51786V6.71429H42.8036C43.9576 6.71429 44.9455 7.12519 45.7673 7.94699C46.5891 8.76879 47 9.7567 47 10.9107Z" fill="white"/>
</svg>
