<svg width="27" height="27" viewBox="0 0 27 27" fill="none" xmlns="http://www.w3.org/2000/svg">
<g clip-path="url(#clip0_643_6)">
<path d="M7.2128 0.897612C3.73281 0.897612 0.898193 3.73262 0.898193 7.21261V19.7872C0.898193 23.2672 3.73241 26.1022 7.2128 26.1022H19.7874C23.2674 26.1022 26.1024 23.2672 26.1024 19.7872V7.21222C26.1024 3.73223 23.2674 0.897217 19.7874 0.897217L7.2128 0.897612ZM7.2128 3.00753H19.7874C22.1353 3.00753 23.9929 4.86472 23.9929 7.21261V19.7872C23.9929 22.1351 22.1353 23.9919 19.7874 23.9919H7.2128C4.8649 23.9919 3.00771 22.1351 3.00771 19.7872V7.21222C3.00771 4.86432 4.8649 3.00753 7.2128 3.00753ZM13.7482 6.22363C13.4686 6.22762 13.202 6.34248 13.0071 6.54296C12.8122 6.74344 12.7048 7.01313 12.7086 7.29274V12.376H7.62617C7.48527 12.3721 7.34502 12.3965 7.21371 12.4478C7.0824 12.499 6.9627 12.576 6.86167 12.6743C6.76064 12.7726 6.68033 12.8902 6.6255 13.02C6.57067 13.1499 6.54241 13.2894 6.54241 13.4304C6.54241 13.5713 6.57067 13.7108 6.6255 13.8407C6.68033 13.9705 6.76064 14.0881 6.86167 14.1864C6.9627 14.2847 7.0824 14.3617 7.21371 14.4129C7.34502 14.4642 7.48527 14.4886 7.62617 14.4847H12.7086V19.5672C12.7059 19.7074 12.7312 19.8468 12.783 19.9772C12.8348 20.1076 12.912 20.2263 13.0103 20.3265C13.1085 20.4267 13.2257 20.5062 13.3551 20.5605C13.4844 20.6149 13.6233 20.6428 13.7636 20.6428C13.9039 20.6428 14.0428 20.6149 14.1721 20.5605C14.3015 20.5062 14.4187 20.4267 14.5169 20.3265C14.6151 20.2263 14.6924 20.1076 14.7442 19.9772C14.796 19.8468 14.8213 19.7074 14.8185 19.5672V14.4847H19.901C20.0419 14.4886 20.1821 14.4642 20.3135 14.4129C20.4448 14.3617 20.5645 14.2847 20.6655 14.1864C20.7665 14.0881 20.8468 13.9705 20.9017 13.8407C20.9565 13.7108 20.9848 13.5713 20.9848 13.4304C20.9848 13.2894 20.9565 13.1499 20.9017 13.02C20.8468 12.8902 20.7665 12.7726 20.6655 12.6743C20.5645 12.576 20.4448 12.499 20.3135 12.4478C20.1821 12.3965 20.0419 12.3721 19.901 12.376H14.8185V7.29274C14.8205 7.1517 14.7941 7.01172 14.741 6.88105C14.6879 6.75039 14.6091 6.63171 14.5093 6.53203C14.4095 6.43235 14.2907 6.3537 14.16 6.30073C14.0293 6.24775 13.8893 6.22154 13.7482 6.22363Z" fill="#ababab"/>
</g>
<defs>
<clipPath id="clip0_643_6">
<rect width="27" height="27" fill="white"/>
</clipPath>
</defs>
</svg>
