<svg width="48" height="48" viewBox="0 0 48 48" fill="none" xmlns="http://www.w3.org/2000/svg">
<path d="M24 4C20.1209 4.00737 16.3277 5.14262 13.0824 7.26748C9.83713 9.39233 7.27977 12.4151 5.72186 15.9675C4.16395 19.52 3.67273 23.4488 4.30803 27.2755C4.94333 31.1022 6.67773 34.6615 9.29998 37.52C11.1728 39.5501 13.4459 41.1703 15.9759 42.2784C18.5058 43.3866 21.2379 43.9587 24 43.9587C26.762 43.9587 29.4941 43.3866 32.0241 42.2784C34.5541 41.1703 36.8271 39.5501 38.7 37.52C41.3222 34.6615 43.0566 31.1022 43.6919 27.2755C44.3272 23.4488 43.836 19.52 42.2781 15.9675C40.7202 12.4151 38.1628 9.39233 34.9175 7.26748C31.6722 5.14262 27.879 4.00737 24 4ZM24 40C19.8569 39.9937 15.8778 38.3806 12.9 35.5C13.8041 33.2991 15.342 31.4166 17.3185 30.0918C19.2949 28.767 21.6206 28.0596 24 28.0596C26.3794 28.0596 28.705 28.767 30.6815 30.0918C32.6579 31.4166 34.1959 33.2991 35.1 35.5C32.1221 38.3806 28.143 39.9937 24 40ZM20 20C20 19.2089 20.2346 18.4355 20.6741 17.7777C21.1136 17.1199 21.7383 16.6072 22.4692 16.3045C23.2001 16.0017 24.0044 15.9225 24.7803 16.0769C25.5563 16.2312 26.269 16.6122 26.8284 17.1716C27.3878 17.731 27.7688 18.4437 27.9231 19.2196C28.0775 19.9956 27.9982 20.7998 27.6955 21.5307C27.3927 22.2616 26.8801 22.8864 26.2223 23.3259C25.5645 23.7654 24.7911 24 24 24C22.9391 24 21.9217 23.5786 21.1715 22.8284C20.4214 22.0783 20 21.0609 20 20ZM37.82 32C36.033 28.9435 33.2828 26.5661 30 25.24C31.0183 24.0853 31.6818 22.6613 31.9109 21.1389C32.14 19.6164 31.9249 18.0602 31.2915 16.657C30.658 15.2538 29.6331 14.0631 28.3398 13.2279C27.0464 12.3927 25.5396 11.9485 24 11.9485C22.4604 11.9485 20.9535 12.3927 19.6602 13.2279C18.3668 14.0631 17.3419 15.2538 16.7085 16.657C16.075 18.0602 15.8599 19.6164 16.089 21.1389C16.3181 22.6613 16.9816 24.0853 18 25.24C14.7172 26.5661 11.9669 28.9435 10.18 32C8.75586 29.5742 8.00342 26.8129 7.99998 24C7.99998 19.7565 9.68569 15.6869 12.6863 12.6863C15.6868 9.68571 19.7565 8 24 8C28.2434 8 32.3131 9.68571 35.3137 12.6863C38.3143 15.6869 40 19.7565 40 24C39.9965 26.8129 39.2441 29.5742 37.82 32Z" fill="white"/>
</svg>
